<?xml version="1.0" encoding="UTF-8"?>
<!--!
Font Awesome Pro 6.2.1 by @fontawesome - https://fontawesome.com
License - https://fontawesome.com/license (Commercial License)
Copyright 2023 Fonticons, Inc.
-->
<svg xmlns="http://www.w3.org/2000/svg" style="display: none;">
  <symbol id="presentation-screen" viewBox="0 0 576 512">
    <path d="M528 64C519.2 64 512 71.16 512 80V288c0 17.67-14.33 32-32 32H96c-17.67 0-32-14.33-32-32V80C64 71.16 56.84 64 48 64S32 71.16 32 80V288c0 35.2 28.8 64 64 64h176v41.38l-91.27 91.39c-6.25 6.25-6.292 16.3-.0417 22.55s16.33 6.246 22.58-.0035L288 422.6l84.73 84.68C375.9 510.4 379.9 512 384 512s8.188-1.562 11.31-4.688c6.25-6.25 6.208-16.3-.0417-22.55L304 393.4V352H480c35.2 0 64-28.8 64-64V80C544 71.16 536.8 64 528 64zM560 0h-544C7.156 0 0 7.156 0 16S7.156 32 16 32h544C568.8 32 576 24.84 576 16S568.8 0 560 0z"></path>
  </symbol>
  <symbol id="file-heart" viewBox="0 0 384 512">
    <path d="M365.3 125.3l-106.5-106.5C246.7 6.742 230.5 0 213.5 0H64C28.65 0 0 28.65 0 64l.0065 384c0 35.35 28.65 64 64 64H320c35.35 0 64-28.65 64-64V170.5C384 153.5 377.3 137.3 365.3 125.3zM224 34.08c4.477 1.566 8.666 3.846 12.12 7.299l106.5 106.5C346.1 151.3 348.4 155.5 349.9 160H240C231.2 160 224 152.8 224 144V34.08zM352 448c0 17.64-14.36 32-32 32H64c-17.64 0-32-14.36-32-32V64c0-17.64 14.36-32 32-32h128v112C192 170.5 213.5 192 240 192H352V448zM191.9 267.6l-8.445-8.754C171.5 246.6 155.5 240 139.6 240c-12.77 0-25.47 4.227-35.93 13.13c-26.93 23.02-28.39 64.17-4.285 89.19l82.99 85.56C185 430.6 188.5 432 192 432s6.977-1.375 9.67-4.127l82.99-85.56c24.11-25.02 22.64-66.17-4.41-89.19C269.9 244.2 257.2 240 244.4 240c-15.97 .002-32.08 6.588-44.05 18.88L191.9 267.6zM223.3 281.2C228.9 275.4 236.6 272 244.4 272c3.979 0 9.82 .9434 15.14 5.5c6.143 5.227 9.75 12.61 10.15 20.78c.4023 8.146-2.531 16.1-7.979 21.75l-69.69 71.85L122.4 320.1C116.9 314.4 113.9 306.4 114.3 298.3c.3965-8.188 3.982-15.58 10.05-20.77C129.7 272.1 135.6 272 139.6 272c7.658 0 15.27 3.328 20.85 9.098L191.9 313.7L223.3 281.2z"></path>
  </symbol>
  <symbol id="notdef" viewBox="0 0 384 512">
    <path d="M336 0h-288C21.49 0 0 21.49 0 48v416C0 490.5 21.49 512 48 512h288c26.51 0 48-21.49 48-48v-416C384 21.49 362.5 0 336 0zM352 59.54v392.9L211.7 256L352 59.54zM192 228.5L51.67 32h280.7L192 228.5zM172.3 256L32 452.5V59.54L172.3 256zM192 283.5L332.3 480H51.67L192 283.5z"></path>
  </symbol>
</svg>
