<?xml version="1.0" encoding="UTF-8"?>
<!--!
Font Awesome Pro 6.2.1 by @fontawesome - https://fontawesome.com
License - https://fontawesome.com/license (Commercial License)
Copyright 2023 Fonticons, Inc.
-->
<svg xmlns="http://www.w3.org/2000/svg" style="display: none;">
  <symbol id="arrow-right" viewBox="0 0 448 512">
    <path d="M264.6 70.63l176 168c4.75 4.531 7.438 10.81 7.438 17.38s-2.688 12.84-7.438 17.38l-176 168c-9.594 9.125-24.78 8.781-33.94-.8125c-9.156-9.5-8.812-24.75 .8125-33.94l132.7-126.6H24.01c-13.25 0-24.01-10.76-24.01-24.01s10.76-23.99 24.01-23.99h340.1l-132.7-126.6C221.8 96.23 221.5 80.98 230.6 71.45C239.8 61.85 254.1 61.51 264.6 70.63z"></path>
  </symbol>
  <symbol id="arrow-up-right" viewBox="0 0 320 512">
    <path d="M320 120v240c0 13.25-10.75 24-24 24s-24-10.75-24-24V177.9l-231 231C36.28 413.7 30.14 416 24 416s-12.28-2.344-16.97-7.031c-9.375-9.375-9.375-24.56 0-33.94L238.1 144H56C42.75 144 32 133.3 32 120S42.75 96 56 96h240C309.3 96 320 106.8 320 120z"></path>
  </symbol>
  <symbol id="arrow-left" viewBox="0 0 448 512">
    <path d="M447.1 256c0 13.25-10.76 24.01-24.01 24.01H83.9l132.7 126.6c9.625 9.156 9.969 24.41 .8125 33.94c-9.156 9.594-24.34 9.938-33.94 .8125l-176-168C2.695 268.9 .0078 262.6 .0078 256S2.695 243.2 7.445 238.6l176-168C193 61.51 208.2 61.85 217.4 71.45c9.156 9.5 8.812 24.75-.8125 33.94l-132.7 126.6h340.1C437.2 232 447.1 242.8 447.1 256z"></path>
  </symbol>
  <symbol id="arrow-down" viewBox="0 0 384 512">
    <path d="M377.4 296.6l-168 176C204.8 477.3 198.6 480 192 480s-12.84-2.688-17.38-7.438l-168-176C-2.5 286.1-2.156 271.8 7.438 262.6c9.5-9.156 24.75-8.812 33.94 .8125L168 396.1V56.02c0-13.25 10.75-24.01 23.1-24.01S216 42.77 216 56.02v340.1l126.6-132.7c9.156-9.625 24.41-9.969 33.94-.8125C386.2 271.8 386.5 286.1 377.4 296.6z"></path>
  </symbol>
  <symbol id="check" viewBox="0 0 448 512">
    <path d="M440.1 103C450.3 112.4 450.3 127.6 440.1 136.1L176.1 400.1C167.6 410.3 152.4 410.3 143 400.1L7.029 264.1C-2.343 255.6-2.343 240.4 7.029 231C16.4 221.7 31.6 221.7 40.97 231L160 350.1L407 103C416.4 93.66 431.6 93.66 440.1 103V103z"></path>
  </symbol>
  <symbol id="notdef" viewBox="0 0 384 512">
    <path d="M336 0h-288C21.49 0 0 21.49 0 48v416C0 490.5 21.49 512 48 512h288c26.51 0 48-21.49 48-48v-416C384 21.49 362.5 0 336 0zM336 90.16V421.8L221.2 256L336 90.16zM192 213.8L77.19 48h229.6L192 213.8zM162.8 256L48 421.8V90.16L162.8 256zM192 298.2L306.8 464H77.19L192 298.2z"></path>
  </symbol>
</svg>
