<svg xmlns="http://www.w3.org/2000/svg" version="1.1" xmlns:xlink="http://www.w3.org/1999/xlink" xmlns:svgjs="http://svgjs.com/svgjs" width="500" height="500"><svg id="SvgjsSvg1000" xmlns="http://www.w3.org/2000/svg" viewBox="0 0 500 500"><defs><style>.cls-1{fill:none;}.cls-2{fill:#fff;}.cls-3{fill:#e82d76;}</style></defs><path class="cls-1" d="m197.18,297.34h-19.12c4.04,3.38,10.1,6.99,19.12,0Z"></path><path class="cls-2" d="m206.92,158.61c-9.18,4.87-29.89,19.71-38.42,33.55-2,3.25-2,7.22.05,10.86,3.32,5.94,12.21,10.96,19.42,10.96h0c1.86,0,3.59-.32,5.14-.96,7.7-3.15,41.84-31.26,46.12-35.39,3-2.88,3.92-6.76,2.46-10.37-3.17-7.85-16.76-10.77-24.59-10.77-4.09,0-7.53.72-10.19,2.13h0Z"></path><path class="cls-2" d="m489.51,237.72c-3.67-5.98-10.06-12.36-17.01-12.36-3.81,0-7.18,1.84-9.48,5.2-1.04,1.53-1.9,3.09-2.73,4.6-.46.83-.93,1.68-1.43,2.52-7.17,11.93-15.3,25.45-23.28,35.93-11.09,14.57-16.29,15.71-17.62,15.71-.33,0-.71-.06-1.26-.46-1.62-1.2-4.84-11.34-.92-33.35,3.66-20.5,11.88-41.39,21.99-55.88l.07-.09,2.78-4.29c2.98-4.61,2.81-10.7-.46-16.71-3.29-6.04-10.35-12.56-18.05-12.56-3.4,0-6.51,1.26-8.97,3.63l-.17.16-3.54,3.93c-3.91-.9-7.94-1.34-12.06-1.34-37.56,0-75.15,36.92-91.6,71.8l-.11.22c-5.65,11.14-13.94,23.71-22.19,33.64-1.48,1.78-2.87,3.38-4.17,4.79,12.93-23.93,36.83-63.47,40.74-69.2,3.1-4.54,2.97-10.75-.36-17.05-1.23-2.34-2.93-4.68-4.95-6.71,4.06,2.42,8.77,3.99,12.93,3.99h0c4.73,0,7.58-1.97,9.15-3.61,4.44-4.68,11.42-12.52,18.17-20.11,2.84-3.19,5.6-6.3,8.04-9.01,2.68-2.99,3.38-6.81,1.85-10.22-3.36-7.52-16.3-9.5-22.68-9.5-4.94,0-8.54.99-10.99,3.05-6.01,5-17.19,15.07-24.71,26.25-2.16,3.22-2.26,7.2-.26,10.93.78,1.48,1.93,2.91,3.29,4.26-2.3-1.27-4.79-2.04-7.38-2.04-2.94,0-5.68,1-7.94,2.89-4.94,4.13-20.33,25.08-33.55,46.92-3.52,5.81-6.81,11.55-9.79,17.06,0,0-.66,1.22-.88,1.64-1.72,2.65-4.34,7.06-7.81,13.19-.35-.94-.7-1.84-1.05-2.73-3.77-9.76-6.27-16.2,2.22-29.17.89-1.36,1.91-2.8,3.04-4.27,1.88-2.46,4.09-5.06,6.57-7.74,3.48-3.76,3.96-9.39,1.32-15.43-3.24-7.42-10.96-15.31-18.88-15.31-3.23,0-6.21,1.33-8.37,3.76-.31.35-1.51,1.75-3.44,4.02-4.26,4.99-12.17,14.28-21.92,25.55-1.8,2.08-3.65,4.22-5.56,6.41-27.34,31.42-45.7,51.29-57.97,63.84,16.03-24.25,38.01-55.44,41.66-60.27,3.27-4.33,3.38-10.39.27-16.63-3.22-6.46-10.21-13.4-18.01-13.4-2.93,0-5.67.99-7.93,2.88-.57.47-1.29,1.18-2.12,2.07,20.12-24.29,45.38-51.13,69.96-58.66,6.48-1.99,10.19-7.59,9.24-13.96-1.61-10.76-15.92-21.67-40.14-21.67-1.62,0-3.28.05-4.95.14-23.28,1.35-55.07,37.47-97.16,110.4-10.39,18-20.1,36.04-28.37,51.99,7.12-29.5,15.41-64.16,20.98-88.4,1.47-6.38-.87-14.02-6.4-20.98-4.64-5.84-12.43-12.07-20.33-12.07-4.75,0-8.84,2.35-11.23,6.47-10.42,17.89-36.85,151.95-36.85,207.72,0,9.03,7.25,15.09,18.05,15.09h0c12.88,0,29.68-8.23,36.89-23.95,5.2-11.34,16.08-34.03,28.42-57.69-7.7,16.71-10.81,29.49-9.27,38.18,1.18,6.69,5.14,11.56,11.13,13.73,2.81,1.02,5.86,1.53,9.1,1.53,14.49,0,33.58-10.54,56.98-31.43.39.91.85,1.61,1.2,2.05,4.51,5.79,16.59,15.59,33.23,15.59,10.82,0,21.75-4.09,32.5-12.13,3.17-2.18,6.27-4.86,9.3-7.99,2.33,4.03,6.12,7.65,12.25,9.63,2.64.85,5.46,1.29,8.36,1.29,13,0,28.64-8.75,46.56-26.04.55,1.03,1.13,2.04,1.76,3.03,4.7,7.4,12.28,11.47,21.34,11.47,16.46,0,35.95-12.73,53.22-34.13,1.35,9.34,4.86,20.19,13.6,28.43,6.31,5.95,13.68,8.97,21.93,8.97h0c29.88,0,60.73-40.22,74.25-63.99,1.9-3.35,3.37-6.04,4.61-8.49,2.56-5.05-.04-11.24-2.68-15.53h0Zm-381.49,33c8.23-14.33,16.25-27.05,22.94-35.43,1.85-2.32,3.79-4.76,5.8-7.29.55-.69,1.11-1.39,1.66-2.1-8.03,10.73-17.69,24.6-26.33,38.24-1.41,2.23-2.77,4.42-4.09,6.56h0Zm96.83,29.16c-1.02,1.78-2.24,3.29-3.74,4.61-.39.35-.8.69-1.31,1.08-1.54,1.19-3.8,2.61-5.82,2.61-1.46,0-2.95-.74-5.01-2.46-.48-.41-.94-.8-1.36-1.18-.45-.4-.88-.78-1.28-1.11l-.36-.3c-.96-.78-2.07-1.33-3.28-1.66,1.4-1.48,2.82-3,4.25-4.54,3.06-3.31,6.18-6.76,9.27-10.25,4.01-4.54,7.5-8.62,10.31-11.98,1.75,7.99,2.44,18.02-1.67,25.18h0Z"></path><path class="cls-3" d="m389.03,204.39c-.59,0-1.27.09-2.04.28-26.31,6.48-67.94,82.25-56.48,82.25.22,0,.46-.03.73-.09,13.06-2.87,75.01-82.46,57.79-82.45h0Z"></path><path class="cls-3" d="m495.15,234.25c-2.23-3.64-10.48-15.52-22.65-15.52-5.98,0-11.42,2.95-14.93,8.09-1.23,1.8-2.2,3.57-3.07,5.14-.45.82-.89,1.61-1.3,2.3-6.53,10.86-13.92,23.15-21.16,33.02-5.14,7.01-8.81,10.87-11.23,12.98-.61-5.27-.46-14.64,2.32-27.85,3.87-18.4,11.19-36.27,20.08-49.02l.13-.19.12-.2,2.71-4.2c4.33-6.71,4.26-15.25-.21-23.46-4.34-7.97-13.4-16.01-23.86-16.01h0c-5.09,0-9.9,1.95-13.57,5.49l-.34.32-.31.35-.87.97c-3.16-.5-6.37-.76-9.64-.76-13.05,0-26.62,3.98-39.99,11.64.84-.95,1.69-1.9,2.53-2.86,2.84-3.19,5.6-6.3,8.04-9.01,4.41-4.92,5.55-11.56,2.97-17.33-5.83-13.05-26.39-13.43-28.72-13.43-6.55,0-11.54,1.5-15.24,4.59-6.27,5.24-17.99,15.78-25.96,27.64-2.14,3.19-3.05,6.88-2.74,10.62-3.04.62-5.86,1.99-8.31,4.04-5.09,4.27-17.03,20.38-28.3,37.89,1.54-4.79,1.13-10.39-1.31-15.99-3.46-7.93-10.86-15.94-19.44-18.46,1.24-1.07,2.25-1.98,2.93-2.64,4.94-4.76,6.47-11.5,4-17.62-2.19-5.45-7.21-9.56-14.88-12.22-.35-.12-.71-.23-1.07-.34,4.54-4.18,6.84-10.26,5.86-16.74-1.17-7.82-6.92-15.16-15.77-20.14-8.31-4.68-19-7.16-30.91-7.16-1.74,0-3.54.06-5.33.16-16.38.96-44.84,13.78-102.51,113.7-1.49,2.59-2.98,5.18-4.44,7.77,3.4-14.36,6.62-28.02,9.23-39.4,1.92-8.36-.88-18.04-7.68-26.58-2.72-3.41-12.61-14.56-25.51-14.56-7.18,0-13.35,3.56-16.96,9.77-8.43,14.52-21.41,83.02-22.87,90.78C10.54,273.68.15,333.19.15,370.09c0,12.79,10.15,21.71,24.67,21.71s34.54-9.55,42.91-27.8c2.15-4.68,4.77-10.4,7.73-16.82,2.38,6.91,7.34,12,14.29,14.52,3.53,1.28,7.35,1.93,11.36,1.93,13.42,0,29.2-7.23,48.26-22.13,2.54-1.99,5.14-4.1,7.78-6.36,6.67,6.58,19.17,14.71,35.37,14.71,12.25,0,24.48-4.5,36.37-13.38,1.61-1.12,3.21-2.35,4.78-3.68,2.99,2.76,6.63,4.88,10.87,6.24,3.3,1.06,6.8,1.6,10.39,1.6,13.46,0,28.39-7.39,45.35-22.49,5.97,7.09,14.45,10.95,24.3,10.95,15.63,0,33.44-9.87,49.84-26.93,2.76,7.73,6.92,14.23,12.44,19.42,7.47,7.05,16.63,10.77,26.47,10.77,30.79,0,62.35-36.27,80.01-67.33,1.95-3.42,3.46-6.21,4.76-8.78,3.12-6.16,2.11-13.76-2.94-21.99h0Zm-183.16-59.91c7.4-11.02,18.86-21.03,23.45-24.86,1.26-1.05,3.79-1.51,6.75-1.51,8.43,0,20.31,3.77,15.91,8.68-8.14,9.07-19.83,22.41-26.08,28.99-1.03,1.09-2.57,1.55-4.36,1.55-7.39,0-18.92-8.02-15.67-12.84h0Zm16.24,26.06h0s0,0,0,0h.02,0Zm-93.6-27.53c-5.01,4.83-37.92,31.53-44.04,34.03-.78.32-1.67.46-2.64.46-6.71,0-16.71-7.05-13.84-11.73,7.57-12.27,26.67-26.29,35.89-31.17,1.78-.95,4.3-1.35,7.08-1.35,9.69,0,22.48,4.99,17.53,9.76h0ZM55.69,358.48c-6.04,13.18-20.54,20.09-30.88,20.09-6.55,0-11.43-2.77-11.43-8.47,0-57.02,27.05-189.09,35.94-204.42,1.29-2.22,3.23-3.17,5.5-3.17,8.89,0,22.64,14.67,20.29,24.95-11.66,50.78-34.99,146.14-34.99,146.14,0,0,96.74-209.14,146.39-212.03,1.57-.09,3.09-.13,4.56-.13,30.78,0,40.5,19.13,28.96,22.68-36.19,11.09-71.31,58.42-94.22,87.06-22.91,28.65-60.23,105.79-70.11,127.32v-.02Zm430.59-108.24c-1.36,2.7-2.87,5.43-4.46,8.22-16.18,28.46-44.64,60.63-68.5,60.63-6.2,0-12.11-2.18-17.39-7.16-16.28-15.34-11.35-42.98-12.33-42.98-.04,0-.09.05-.16.15-19.41,30.4-42.61,46.74-58.87,46.74-6.67,0-12.17-2.75-15.76-8.4-2.22-3.5-3.82-7.33-4.86-11.4-15.54,16.41-33.85,31.34-49.04,31.34-2.18,0-4.3-.31-6.34-.96-7.84-2.53-11.07-8.89-11.16-17.55-4.73,6.69-10.16,12.63-16.28,16.84-10.75,8.09-20.43,10.89-28.64,10.89-15.11,0-25.26-9.51-28.01-13.04-3.5-4.49,9.6-15.83,15.52-15.83.73,0,1.34.17,1.81.55.09.07.17.14.26.22.77.64,1.65,1.46,2.65,2.3,2.35,1.96,5.37,4,9.26,4,2.81,0,6.08-1.07,9.86-4,.54-.42,1.08-.85,1.64-1.34,2.14-1.88,3.8-4.01,5.1-6.28,9.68-16.88-1.44-42.16-1.44-42.16,0,0-7.05,8.99-17.9,21.28-2.82,3.19-5.89,6.6-9.16,10.14-23.83,25.74-58.21,57.95-81,57.95-2.42,0-4.71-.36-6.85-1.13-32.31-11.71,54.47-129.07,64.12-137.16,1.11-.93,2.35-1.33,3.67-1.33,7.52,0,17.01,13.39,12.45,19.42-3.57,4.73-65.23,91.71-59.63,92.26h.18c8.45,0,54.3-51.05,86.03-87.51,1.92-2.2,3.77-4.34,5.58-6.42,14.07-16.26,24.32-28.4,25.31-29.5.96-1.08,2.14-1.55,3.43-1.55,7.12,0,17.58,14.35,12.7,19.63-2.7,2.91-5,5.65-6.97,8.21-1.24,1.62-2.35,3.17-3.32,4.66-16.11,24.59,1.52,33.36,1.62,54.08,5.95-10.85,12.84-23.18,16.23-28.33,0,0,0-.02.02-.03.33-.62.67-1.25,1.01-1.87,3.07-5.7,6.34-11.34,9.62-16.78,13.91-22.97,28.39-42.12,32.14-45.27,1.12-.94,2.37-1.35,3.69-1.35,7.44,0,16.68,13.21,12.44,19.43-3.46,5.07-55.26,89.93-49.66,90.47.19.02.37.03.57.03,11.27,0,34.5-30.15,46.07-52.99h0c16.44-35.17,52.45-68.39,85.79-68.38,4.83,0,9.61.7,14.25,2.18l6.1-6.8c1.28-1.24,2.78-1.77,4.37-1.77,7.64,0,17.22,12.45,12.96,19.05l-2.71,4.2c-23.53,33.74-31.46,89.5-19.59,98.33,1.64,1.21,3.38,1.78,5.21,1.78,13.54,0,31.97-30.57,46.58-54.84,1.38-2.3,2.53-4.7,3.95-6.79,1.12-1.64,2.51-2.32,4.01-2.32,6.78,0,15.97,13.97,13.79,18.27h.02Z"></path></svg><style>@media (prefers-color-scheme: light) { :root { filter: none; } }
@media (prefers-color-scheme: dark) { :root { filter: contrast(0.8333333333333334) brightness(1.7); } }
</style></svg>