<svg height="1190pt" preserveAspectRatio="xMidYMid meet" viewBox="0 0 1190 1190" width="1190pt" xmlns="http://www.w3.org/2000/svg"><g transform="matrix(.1 0 0 -.1 0 1190)"><path d="m4345 9319c-553-80-1258-846-2160-2349-78-129-177-297-220-372-44-75-80-136-82-134-1 1 47 214 108 472 101 425 111 478 112 564 0 52-6 117-12 145-62 258-287 530-534 645-253 118-505 61-642-145-115-174-283-796-480-1775-251-1246-409-2388-431-3110-8-230-1-286 48-388 34-72 119-164 189-205 372-214 995-7 1284 428 31 46 99 177 151 292 53 114 100 216 106 227 10 18 15 12 46-49 70-140 207-245 382-292 103-28 317-23 442 10 298 79 638 274 999 574 43 34 80 63 84 63s38-24 74-54c247-201 518-295 816-283 301 12 547 110 861 343l73 53 71-48c210-145 481-170 771-72 200 68 453 223 683 420l60 51 50-48c151-142 314-205 531-206 344 0 730 193 1097 550 47 46 89 84 92 84s6-6 6-13c0-26 98-212 148-284 140-197 347-341 563-393 105-25 295-27 405-4 490 101 1038 560 1509 1264 135 202 293 473 326 560 30 76 35 179 15 260-35 141-151 329-269 437-177 163-389 204-569 112-64-32-148-124-202-219-90-158-278-464-394-640-137-209-254-367-353-474-85-92-87-90-88 45-3 341 115 848 289 1245 71 163 139 287 261 475 115 177 132 223 132 354 1 84-4 113-27 180-98 284-361 495-616 495-126 0-227-40-320-126-45-41-45-41-100-33-88 12-266 10-383-6-202-27-444-105-643-209-46-24-79-36-72-27s65 75 129 146c64 72 127 149 142 171 41 65 60 146 55 229-15 238-239 398-613 437-189 19-339-12-446-92-164-123-430-394-573-583-88-117-118-181-124-268-5-68-5-68-41-80-63-20-124-56-174-99-91-81-319-380-536-702-62-93-114-168-116-168-1 0 2 19 7 43 5 23 7 76 4 118-16 231-199 490-423 601l-83 41 65 68c97 101 134 205 115 325-26 159-143 286-330 360l-70 27 36 40c20 22 50 69 67 106 42 90 50 216 18 318-92 303-435 523-893 572-113 13-316 12-403 0zm421-320c113-15 237-53 334-101 156-78 264-215 246-311-11-59-43-84-166-131-450-170-872-502-1420-1116-232-259-784-947-923-1148-361-524-913-1544-1446-2671-55-117-121-241-145-276-146-204-414-344-658-345-136 0-227 43-257 123-14 36-14 280-1 479 68 1002 371 2791 666 3923 94 358 157 531 212 577 91 76 254 18 410-146 105-111 172-247 172-350 0-58-196-892-619-2640-116-477-211-871-211-875 0-3 28 53 62 124 126 264 572 1148 709 1405 427 800 777 1397 1144 1950 603 908 1064 1393 1440 1516 60 20 91 23 222 24 83 0 186-5 229-11zm3520-630c106-18 183-49 225-88 21-21 39-45 39-54 0-20-8-30-305-362-338-379-361-402-410-411-98-18-277 57-364 152-63 69-71 101-38 157 92 153 476 549 582 598 46 22 174 26 271 8zm-2897-378c91-27 147-54 189-94 61-58 54-69-157-245-366-306-741-592-855-653-52-28-65-31-117-26-69 6-173 52-236 103-44 37-83 98-83 132 0 62 239 325 447 493 186 149 404 291 476 310 57 15 256 2 336-20zm4768-227c64-31 151-123 190-201 22-46 28-72 28-123 0-62-3-70-52-145-238-365-375-659-487-1048-53-182-99-404-122-585-21-175-16-474 11-574 27-105 69-168 134-200 64-33 102-35 176-9 166 59 362 263 627 656 120 177 347 543 437 702 28 50 65 103 82 117 64 54 151 24 257-88 78-85 133-184 140-255 4-46 0-59-52-155-271-507-674-1005-1031-1271-261-194-440-268-650-269-136-1-224 25-330 95-257 172-385 495-385 973v119l-81-119c-296-433-668-776-991-916-280-121-513-100-657 58-52 57-107 155-142 254-12 36-24 67-26 69-1 2-71-63-155-145-506-494-917-680-1208-548-117 53-190 161-212 312l-12 80-49-67c-83-110-261-279-380-360-376-254-723-294-1045-120-141 75-272 194-272 246 0 76 140 229 270 296 101 52 123 50 207-19 153-127 266-142 413-56 274 161 374 492 280 927-20 90-77 273-89 287-4 4-59-56-123-135-268-327-563-651-890-972-347-344-575-537-839-714-280-187-501-280-687-289-352-16-451 198-305 661 114 366 386 881 790 1495 291 443 640 917 792 1075 93 97 129 106 229 56 141-70 262-279 224-387-5-16-102-159-215-318-669-945-1187-1740-1232-1892-17-58 67-26 193 73 348 275 1127 1115 2284 2461 185 215 344 394 353 398 66 25 155-12 242-101 79-82 126-173 131-258l4-61-77-90c-133-154-203-255-264-379-69-139-91-220-91-331 0-109 18-183 89-374 59-158 91-276 108-389l8-55 99 180c55 98 136 240 179 314 44 74 118 203 165 285 300 533 714 1149 917 1363 54 57 65 64 108 69 32 4 62 0 93-12 64-24 163-123 205-205 29-57 33-75 33-140l1-75-158-254c-396-636-887-1496-998-1748-22-53-44-113-46-134-6-39-5-39 28-39 44 0 138 45 214 103 78 58 268 254 366 377 191 238 353 490 511 792 123 238 184 339 301 502 335 468 792 845 1225 1010 266 102 550 126 780 68l72-18 72 82c115 130 166 146 285 88z"/><path d="m9185 7026c-203-65-474-314-757-696-268-362-523-830-588-1079-33-126-24-171 34-171 56 0 149 72 336 259 457 458 990 1195 1099 1519 51 150 7 209-124 168z"/></g></svg>