<svg viewBox="0 0 524.43 298.13" xmlns="http://www.w3.org/2000/svg"><path d="m405.24 102.71c-3.89.96-8.11 3.38-12.44 6.84-.07.05-.13.11-.2.16-.39.31-.79.64-1.18.97-.19.16-.38.32-.57.49-.27.23-.54.46-.81.7-.3.26-.6.54-.9.81-.16.15-.32.29-.48.44-.4.37-.79.74-1.19 1.12-.06.06-.12.12-.19.18-24.49 23.64-49.89 73.37-40.44 73.37.23 0 .48-.03.75-.09 1.48-.33 3.56-1.6 6.07-3.61 0 0 0 0 .01-.01.28-.22.56-.46.85-.7.12-.1.23-.19.34-.29.2-.17.4-.34.6-.52.22-.19.43-.38.66-.57.12-.11.24-.22.36-.33.32-.28.63-.57.96-.87.04-.04.08-.08.13-.12 23.06-21.36 68.18-83.03 47.66-77.98z"/><path d="m517.36 166.24c2.03-3.58 3.62-6.49 4.98-9.18 3.61-7.13 2.53-15.77-3.14-24.99-2.47-4.02-11.61-17.16-25.4-17.16-6.96 0-13.28 3.41-17.35 9.37-1.33 1.95-2.38 3.84-3.3 5.51-.46.84-.9 1.63-1.3 2.3-6.55 10.89-13.97 23.24-21.22 33.24-3.38 4.67-6.14 8-8.32 10.36-.06-5.63.6-13.71 2.83-24.02 3.99-18.44 11.36-36.31 20.23-49.02l.16-.23.15-.23 2.81-4.34c4.88-7.55 4.84-17.51-.13-26.63-4.81-8.85-14.94-17.77-26.71-17.77-5.86 0-11.42 2.25-15.64 6.33l-.41.39-.38.42-.08.09c-2.99-.42-6.02-.63-9.09-.63-10.39 0-21.08 2.38-31.73 6.96 1.04-1.16 2.05-2.29 3-3.36 5.18-5.77 6.5-13.59 3.46-20.42-2.68-6.01-8.23-10.36-16.5-12.93-4.75-1.48-10.34-2.32-15.32-2.32-7.34 0-12.98 1.73-17.24 5.28-6.59 5.5-18.89 16.59-27.3 29.09-2.62 3.89-3.31 6.87-2.53 10.28-3.08.81-5.95 2.3-8.48 4.41-5.61 4.71-16.25 19.71-20.56 25.95-1.39 2.01-2.78 4.05-4.15 6.11-.31-2.8-1.09-5.68-2.34-8.56-3.3-7.55-9.88-15.17-17.8-18.93.05-.04.11-.1.15-.14 5.79-5.56 7.58-13.47 4.68-20.65-3.07-7.58-10.18-11.74-17.1-14.02 3.52-4.57 5.14-10.42 4.22-16.58-1.32-8.8-7.68-17-17.47-22.51-8.95-5.04-20.4-7.7-33.12-7.7-1.85 0-3.75.06-5.65.17-16.9.98-34.98 14.17-56.91 41.51-14.32 17.85-30.39 41.96-47.8 71.72 2.16-9.19 4.18-17.84 5.94-25.48 2.17-9.47-.8-19.93-8.39-29.46-7.95-9.98-18.49-15.94-28.2-15.94-8.27 0-15.39 4.1-19.54 11.25-8.73 15.04-21.47 81.51-23.93 94.69-4.66 24.75-15.44 86.51-15.44 124.89 0 8.06 3.75 15.26 10.29 19.77 4.74 3.27 10.81 5 17.54 5 16.24 0 37.43-10.35 46.5-30.12 1.99-4.33 4.4-9.48 7.15-15.2 2.94 6.8 8.31 11.94 15.41 14.51 3.91 1.42 8.12 2.13 12.54 2.13 12.5 0 26.65-5.68 43.26-17.37 4.68-3.29 9.58-7.08 14.67-11.35 6.43 5.88 18.87 14.45 36.68 14.45 12.61 0 25.17-4.4 37.36-13.1.75-.5 1.41-1.01 2.02-1.48.8-.61 1.82-1.46 3-2.49 3.05 2.49 6.65 4.43 10.75 5.75 3.64 1.17 7.5 1.77 11.46 1.77 14.03 0 29.43-7.34 46.74-22.35 6.49 6.76 15.27 10.4 25.35 10.4 12.14 0 25.63-5.43 38.99-15.7 3.97-3.05 7.9-6.51 11.75-10.32 2.93 6.87 6.99 12.77 12.14 17.63 8.17 7.7 18.19 11.77 28.98 11.77 15.67 0 32.32-8.34 49.49-24.77 12.9-12.35 25.44-28.71 35.31-46.07zm-189.67-94.97c7.67-11.4 19.52-21.77 24.28-25.73 1.3-1.08 3.92-1.56 6.99-1.56 8.72 0 21.02 3.9 16.46 8.99-8.43 9.39-20.53 23.2-26.99 30-1.07 1.13-2.67 1.61-4.51 1.61-7.65 0-19.58-8.3-16.22-13.3zm-80.1-1.27c-5.19 4.98-39.23 32.47-45.56 35.05-.81.33-1.73.48-2.73.48-6.94 0-17.29-7.27-14.31-12.08 7.83-12.63 27.59-27.08 37.13-32.11 1.84-.97 4.46-1.39 7.33-1.39 10.03 0 23.26 5.15 18.14 10.05zm-187.81 191.35c-.62 1.34-1.34 2.61-2.11 3.82-.06.1-.12.2-.19.3-.33.5-.67 1-1.02 1.48-.14.19-.28.38-.43.57-.32.42-.65.85-.99 1.25-.21.25-.43.49-.64.73-.3.34-.6.69-.92 1.02-.53.55-1.08 1.09-1.64 1.61-.16.15-.32.28-.48.42-.47.42-.95.83-1.44 1.22-.16.13-.32.25-.48.37-.53.41-1.07.81-1.62 1.19-.1.07-.21.15-.31.22-13.64 9.31-31.56 8.97-31.56-2.15 0-59.01 27.99-195.71 37.19-211.56.29-.5.62-.91.97-1.29.11-.12.22-.24.33-.34.09-.08.17-.16.26-.23.21-.18.43-.34.66-.48.02-.01.03-.02.05-.03 1.03-.64 2.2-.95 3.48-.95 9.2 0 23.43 15.18 20.99 25.82-11.81 51.43-35.18 147.04-36.18 151.1 2.87-6.18 74.95-160.67 127.29-206.54 8.75-7.68 16.94-12.33 24.18-12.75 1.62-.09 3.2-.14 4.72-.14 28.57 0 39.59 15.92 32.95 21.85-.07.06-.12.12-.19.18-.04.03-.09.06-.13.1-.73.58-1.62 1.06-2.72 1.39-12.87 3.94-25.61 12.31-37.75 22.81-23.17 20.04-44.16 47.81-59.72 67.25-23.72 29.64-62.34 109.48-72.56 131.77zm414.93-64.32c-.18.19-.37.38-.55.56-.5.51-1 1.02-1.51 1.52-.42.42-.85.83-1.27 1.25-.31.29-.61.59-.92.88-.47.44-.93.88-1.4 1.31-.22.2-.43.4-.65.59-.63.58-1.27 1.14-1.91 1.69-.17.14-.33.29-.5.43-.72.62-1.45 1.23-2.17 1.82-17.13 13.97-35.3 19.86-49.33 6.63-17.01-16.04-11.64-45.07-12.8-44.48-.02.03-.05.05-.08.1-7.07 11.08-14.62 20.34-22.18 27.71-.09.08-.17.17-.26.25-.8.77-1.59 1.52-2.38 2.25-.15.14-.3.28-.45.41-.85.77-1.7 1.52-2.55 2.25-.18.16-.36.3-.55.45-.63.53-1.27 1.05-1.9 1.55-.33.26-.65.52-.98.77-.51.4-1.03.79-1.54 1.17-.59.44-1.17.86-1.76 1.28-.42.3-.84.59-1.26.88-.48.33-.96.64-1.44.96-.26.17-.52.33-.78.5-1.8 1.14-3.57 2.15-5.32 3.05-.02.01-.04.02-.06.03-14.63 7.48-27.33 6.54-33.88-3.77-2.3-3.62-3.96-7.58-5.03-11.78-4.56 4.81-9.34 9.49-14.22 13.74-.23.2-.45.39-.68.59-.33.28-.66.57-.99.85-.32.27-.64.54-.97.81-.23.19-.46.38-.69.57-.38.31-.77.63-1.15.93-.15.12-.31.25-.46.37-.44.35-.89.7-1.33 1.05-.06.05-.12.09-.19.14-12.81 9.88-25.83 15.86-36.63 12.39-8.11-2.61-11.46-9.19-11.55-18.14-.36.5-.74 1.01-1.14 1.53-4.62 6.28-9.86 11.86-15.72 15.88s-.04.02-.06.04c-.85.65-1.14.88-1.14.88s.69-.53 1.05-.81c-31.55 23.59-54.08 3.29-58.47-2.34-1.82-2.33.68-6.43 4.4-9.95.05-.05.1-.1.16-.15.17-.16.34-.32.52-.48.22-.2.44-.39.67-.59.02-.01.03-.03.05-.04 3.48-2.95 7.63-5.23 10.33-5.23.75 0 1.39.18 1.87.57 2.66 2.14 6.65 6.75 12.6 6.75 2.85 0 6.14-1.06 9.95-3.95.13-.1.27-.2.4-.31.17-.13.34-.27.51-.4.3-.24.6-.49.9-.76.03-.03.06-.05.09-.08 18.53-16.38 3.92-49.8 3.79-50.11-1.18 1.5-25.21 31.89-52.78 57.43-.07.06-.13.12-.2.18-.7.65-1.4 1.29-2.1 1.93-.2.18-.4.36-.6.54-.57.51-1.14 1.03-1.71 1.53-.3.26-.59.53-.89.79-.47.42-.94.83-1.41 1.24-.38.33-.75.65-1.13.98-.39.34-.78.68-1.18 1.01-.44.38-.88.75-1.32 1.13-.32.27-.64.54-.96.81-.51.42-1.01.85-1.52 1.26-.25.2-.49.4-.74.6-.58.47-1.16.94-1.73 1.4-.16.13-.32.26-.48.38-.66.52-1.31 1.04-1.97 1.55-.06.05-.12.09-.17.13-17.91 13.9-35.56 22.91-48.03 18.39-12.85-4.66-7.49-25.46 4.53-49.78 3.79-7.15 7.64-14.25 11.46-21.06 12.13-20.66 26.55-41.28 37-55.05 3.61-4.53 7.46-9.32 11.51-14.21.77-.83 1.4-1.46 1.85-1.84.01-.01.03-.03.05-.04.13-.11.26-.18.4-.28.11-.08.21-.16.32-.23.96-.6 2-.88 3.08-.88 7.78 0 17.61 13.86 12.89 20.1-3.7 4.89-67.51 94.92-61.71 95.49h.19c1.25 0 3.3-1.08 5.98-3.05.03-.02.07-.05.1-.07.4-.29.81-.61 1.24-.94.11-.09.23-.19.35-.28.35-.28.71-.56 1.07-.86.22-.18.44-.37.66-.55.28-.23.56-.47.85-.71.34-.29.68-.58 1.03-.89.19-.16.37-.32.57-.49.47-.41.95-.84 1.44-1.28.08-.07.16-.14.24-.21 32.07-28.98 104.67-115.28 107.41-118.36.04-.04.08-.08.12-.12.15-.16.31-.31.47-.45.03-.02.05-.04.08-.06.87-.7 1.86-1.02 2.93-1.02 7.37 0 18.2 14.85 13.14 20.32-33.49 36.21-9.12 44.46-8.97 69.23 6.14-11.2 13.25-23.91 16.75-29.22 0-.01.01-.02.02-.03 16.78-31.54 39.37-62.04 44.27-66.15h.01c.01-.01.03-.03.04-.04.12-.1.25-.17.37-.26.12-.08.23-.17.35-.25.24-.15.48-.27.73-.38.75-.33 1.54-.51 2.36-.51 7.7 0 17.27 13.67 12.87 20.11-3.59 5.25-57.19 93.07-51.39 93.62.19.02.38.03.58.03 2.17 0 4.77-1.08 7.64-2.99.06-.04.11-.08.17-.11.4-.27.81-.56 1.23-.87.12-.09.24-.18.36-.27.35-.26.71-.54 1.07-.83.19-.15.39-.31.58-.47.29-.24.59-.49.88-.74.27-.24.55-.48.83-.72.22-.2.44-.4.67-.6.36-.33.73-.67 1.1-1.02.14-.14.29-.27.43-.41.46-.44.92-.9 1.39-1.37l.16-.16c11.07-11.19 23.53-29.23 31.13-44.23h.01c7.42-15.88 18.7-31.38 31.93-43.8.11-.11.22-.21.34-.31.84-.78 1.68-1.55 2.53-2.31.16-.15.33-.29.5-.43.74-.65 1.48-1.29 2.22-1.91.25-.21.51-.43.77-.64.66-.54 1.31-1.07 1.98-1.6.33-.26.66-.53.99-.78.68-.52 1.35-1.04 2.04-1.55.43-.32.86-.63 1.29-.95.42-.3.84-.6 1.26-.9.72-.51 1.45-1 2.17-1.49.25-.17.5-.33.75-.5.97-.64 1.95-1.26 2.94-1.86.1-.06.21-.13.31-.19 11.94-7.24 24.55-11.6 36.82-11.6 5 0 9.94.72 14.75 2.26l6.27-6.98s.03-.03.05-.04c.22-.22.45-.4.68-.58 0 0 .02-.01.03-.02 1.16-.86 2.46-1.25 3.82-1.25 7.91 0 17.83 12.88 13.41 19.72l-2.81 4.34c-24.36 34.92-32.56 92.63-20.27 101.76 1.69 1.26 3.49 1.84 5.39 1.84 3.49 0 7.29-1.96 11.27-5.3.03-.02.05-.04.08-.06.43-.36.86-.74 1.3-1.14.13-.11.25-.23.38-.34.37-.34.73-.69 1.1-1.05.21-.21.43-.42.64-.63.16-.16.33-.33.49-.5.47-.49.95-.99 1.43-1.5 0 0 0 0 .01-.01 10.53-11.42 21.8-30.12 31.45-46.16 1.43-2.38 2.62-4.87 4.09-7.02.15-.23.32-.42.48-.61 0 0 .02-.02.02-.03.1-.11.2-.22.3-.32.13-.13.26-.26.4-.37.04-.03.08-.07.12-.1.88-.7 1.85-1.01 2.87-1.01 7.02 0 16.53 14.46 14.27 18.91-1.41 2.78-2.97 5.62-4.62 8.51-7.53 13.25-17.64 27.27-28.73 38.7z"/></svg>