<?xml version="1.0" encoding="UTF-8"?><svg id="Layer_1" xmlns="http://www.w3.org/2000/svg" viewBox="0 0 528.41 299.91"><defs><style>.cls-1{fill:none;}.cls-2{fill:#fff;}.cls-3{fill:#e82d76;}</style></defs><path class="cls-1" d="m208.35,200.02h-20.22c4.27,3.57,10.68,7.39,20.22,0Z"/><g><path class="cls-3" d="m218.64,53.33c-9.71,5.15-31.61,20.84-40.63,35.48-2.12,3.44-2.11,7.63.05,11.48,3.51,6.28,12.91,11.59,20.54,11.59h0c1.97,0,3.8-.34,5.44-1.01,8.14-3.33,44.24-33.05,48.77-37.42,3.17-3.05,4.14-7.15,2.6-10.97-3.35-8.3-17.72-11.39-26-11.39-4.33,0-7.96.76-10.77,2.25Z"/><path class="cls-3" d="m517.46,136.98c-3.88-6.32-10.64-13.07-17.99-13.07-4.03,0-7.59,1.95-10.02,5.5-1.1,1.62-2.01,3.27-2.89,4.86-.49.88-.98,1.78-1.51,2.66-7.58,12.61-16.18,26.91-24.62,37.99-11.73,15.41-17.23,16.61-18.63,16.61-.35,0-.75-.06-1.33-.49-1.71-1.27-5.12-11.99-.97-35.26,3.87-21.68,12.56-43.77,23.25-59.09l.07-.1,2.94-4.54c3.15-4.87,2.97-11.31-.49-17.67-3.48-6.39-10.94-13.28-19.09-13.28-3.6,0-6.88,1.33-9.48,3.84l-.18.17-3.74,4.16c-4.13-.95-8.4-1.42-12.75-1.42-39.72,0-79.46,39.04-96.86,75.92l-.12.23c-5.97,11.78-14.74,25.07-23.46,35.57-1.57,1.88-3.04,3.57-4.41,5.06,13.67-25.3,38.94-67.11,43.08-73.17,3.28-4.8,3.14-11.37-.38-18.03-1.3-2.47-3.1-4.95-5.23-7.09,4.29,2.56,9.27,4.22,13.67,4.22h0c5,0,8.02-2.08,9.68-3.82,4.7-4.95,12.08-13.24,19.21-21.26,3-3.37,5.92-6.66,8.5-9.53,2.83-3.16,3.57-7.2,1.96-10.81-3.55-7.95-17.24-10.05-23.98-10.05-5.22,0-9.03,1.05-11.62,3.22-6.35,5.29-18.18,15.94-26.13,27.76-2.28,3.4-2.39,7.61-.28,11.56.83,1.56,2.04,3.08,3.48,4.5-2.43-1.34-5.06-2.16-7.8-2.16-3.11,0-6.01,1.06-8.4,3.06-5.22,4.37-21.5,26.52-35.48,49.61-3.72,6.14-7.2,12.21-10.35,18.04,0,0-.7,1.29-.93,1.73-1.82,2.8-4.59,7.47-8.26,13.95-.37-.99-.74-1.95-1.11-2.89-3.99-10.32-6.63-17.13,2.35-30.84.94-1.44,2.02-2.96,3.21-4.51,1.99-2.6,4.33-5.35,6.95-8.18,3.68-3.98,4.19-9.93,1.4-16.32-3.43-7.85-11.59-16.19-19.96-16.19-3.42,0-6.57,1.41-8.85,3.98-.33.37-1.6,1.85-3.64,4.25-4.5,5.28-12.87,15.1-23.18,27.02-1.9,2.2-3.86,4.46-5.88,6.78-28.91,33.22-48.32,54.23-61.3,67.51,16.95-25.64,40.19-58.62,44.05-63.73,3.46-4.58,3.57-10.99.29-17.58-3.4-6.83-10.8-14.17-19.04-14.17-3.1,0-6,1.05-8.38,3.05-.6.5-1.36,1.25-2.24,2.19,21.27-25.68,47.99-54.07,73.98-62.03,6.85-2.1,10.78-8.03,9.77-14.76-1.7-11.38-16.83-22.91-42.44-22.91-1.71,0-3.47.05-5.23.15-24.62,1.43-58.23,39.62-102.74,116.74-10.99,19.03-21.25,38.11-30,54.97,7.53-31.19,16.29-67.84,22.18-93.48,1.55-6.75-.92-14.83-6.77-22.18-4.91-6.17-13.14-12.76-21.5-12.76-5.02,0-9.35,2.49-11.87,6.84C34.95,76.23,7,217.98,7,276.95c0,9.55,7.67,15.96,19.09,15.96h0c13.62,0,31.38-8.7,39.01-25.32,5.5-11.99,17-35.98,30.05-61-8.14,17.67-11.43,31.18-9.8,40.37,1.25,7.07,5.43,12.22,11.77,14.52,2.97,1.08,6.2,1.62,9.62,1.62,15.32,0,35.51-11.15,60.25-33.23.41.96.9,1.7,1.27,2.17,4.77,6.12,17.54,16.49,35.14,16.49,11.44,0,23-4.32,34.37-12.83,3.35-2.31,6.63-5.14,9.83-8.45,2.46,4.26,6.47,8.09,12.95,10.18,2.79.9,5.77,1.36,8.84,1.36,13.75,0,30.28-9.25,49.23-27.53.58,1.09,1.2,2.16,1.86,3.2,4.97,7.82,12.98,12.13,22.57,12.13,17.4,0,38.01-13.46,56.28-36.09,1.43,9.88,5.14,21.35,14.38,30.06,6.67,6.29,14.47,9.48,23.19,9.48h0c31.6,0,64.22-42.53,78.51-67.66,2.01-3.54,3.56-6.39,4.87-8.98,2.71-5.34-.04-11.88-2.83-16.42Zm-403.39,34.89c8.7-15.15,17.18-28.6,24.26-37.46,1.96-2.45,4.01-5.03,6.13-7.71.58-.73,1.17-1.47,1.76-2.22-8.49,11.35-18.71,26.01-27.84,40.44-1.49,2.36-2.93,4.67-4.32,6.94Zm102.39,30.83c-1.08,1.88-2.37,3.48-3.95,4.87-.41.37-.85.73-1.38,1.14-1.63,1.26-4.02,2.76-6.15,2.76-1.54,0-3.12-.78-5.3-2.6-.51-.43-.99-.85-1.44-1.25-.48-.42-.93-.82-1.35-1.17l-.38-.32c-1.01-.82-2.19-1.41-3.47-1.76,1.48-1.57,2.98-3.17,4.49-4.8,3.24-3.5,6.54-7.15,9.8-10.84,4.24-4.8,7.93-9.12,10.9-12.67,1.85,8.45,2.58,19.05-1.77,26.63Z"/></g><g><path class="cls-2" d="m411.21,101.74c-.62,0-1.34.1-2.16.3-27.82,6.85-71.84,86.97-59.72,86.97.23,0,.49-.03.77-.09,13.81-3.04,79.32-87.19,61.11-87.18Z"/><path class="cls-2" d="m523.42,133.31c-2.36-3.85-11.08-16.41-23.95-16.41-6.32,0-12.08,3.12-15.79,8.55-1.3,1.9-2.33,3.78-3.25,5.44-.48.87-.94,1.7-1.37,2.43-6.9,11.48-14.72,24.48-22.37,34.92-5.43,7.41-9.32,11.49-11.87,13.73-.65-5.57-.49-15.48,2.45-29.45,4.09-19.46,11.83-38.35,21.23-51.83l.14-.2.13-.21,2.87-4.44c4.58-7.09,4.5-16.13-.22-24.81-4.59-8.43-14.17-16.93-25.23-16.93h0c-5.38,0-10.47,2.06-14.35,5.81l-.36.34-.33.37-.92,1.03c-3.34-.53-6.74-.8-10.19-.8-13.8,0-28.15,4.21-42.29,12.31.89-1,1.79-2.01,2.68-3.02,3-3.37,5.92-6.66,8.5-9.53,4.66-5.2,5.87-12.22,3.14-18.33-6.16-13.8-27.91-14.2-30.37-14.2-6.93,0-12.2,1.59-16.11,4.85-6.63,5.54-19.02,16.69-27.45,29.23-2.26,3.37-3.23,7.28-2.9,11.23-3.21.66-6.2,2.1-8.79,4.27-5.38,4.51-18.01,21.55-29.92,40.06,1.63-5.07,1.2-10.99-1.39-16.91-3.66-8.38-11.48-16.85-20.56-19.52,1.31-1.13,2.38-2.09,3.1-2.79,5.22-5.03,6.84-12.16,4.23-18.63-2.32-5.76-7.62-10.11-15.73-12.92-.37-.13-.75-.24-1.13-.36,4.8-4.42,7.23-10.85,6.2-17.7-1.24-8.27-7.32-16.03-16.68-21.3-8.79-4.95-20.09-7.57-32.68-7.57-1.84,0-3.74.06-5.64.17-17.32,1.01-47.41,14.57-108.4,120.23-1.58,2.74-3.15,5.48-4.7,8.22,3.6-15.18,7-29.63,9.76-41.66,2.03-8.84-.93-19.08-8.12-28.11-2.88-3.61-13.33-15.4-26.97-15.4-7.59,0-14.12,3.76-17.93,10.33-8.91,15.35-22.64,87.79-24.18,95.99C10.99,175,0,237.93,0,276.95c0,13.52,10.73,22.96,26.09,22.96s36.52-10.1,45.37-29.4c2.27-4.95,5.04-11,8.17-17.79,2.52,7.31,7.76,12.69,15.11,15.35,3.73,1.35,7.77,2.04,12.01,2.04,14.19,0,30.88-7.65,51.03-23.4,2.69-2.1,5.43-4.34,8.23-6.72,7.05,6.96,20.27,15.55,37.4,15.55,12.95,0,25.89-4.76,38.46-14.15,1.7-1.18,3.39-2.48,5.05-3.89,3.16,2.92,7.01,5.16,11.49,6.6,3.49,1.12,7.19,1.69,10.99,1.69,14.23,0,30.02-7.81,47.95-23.78,6.31,7.5,15.28,11.58,25.7,11.58,16.53,0,35.36-10.44,52.7-28.48,2.92,8.17,7.32,15.05,13.15,20.54,7.9,7.45,17.58,11.39,27.99,11.39,32.56,0,65.93-38.35,84.6-71.19,2.06-3.62,3.66-6.57,5.03-9.28,3.3-6.51,2.23-14.55-3.11-23.25Zm-193.67-63.35c7.83-11.65,19.94-22.24,24.8-26.29,1.33-1.11,4.01-1.6,7.14-1.6,8.91,0,21.48,3.99,16.82,9.18-8.61,9.59-20.97,23.7-27.58,30.65-1.09,1.15-2.72,1.64-4.61,1.64-7.81,0-20.01-8.48-16.57-13.58Zm17.17,27.56s0,0-.01.01c0,0,0,0,0-.01,0,0,.01,0,.02,0Zm-98.97-29.11c-5.3,5.11-40.1,33.34-46.57,35.98-.83.34-1.77.49-2.79.49-7.1,0-17.67-7.46-14.63-12.4,8-12.97,28.2-27.8,37.95-32.96,1.88-1,4.55-1.43,7.49-1.43,10.25,0,23.77,5.28,18.54,10.32ZM58.73,264.67c-6.39,13.94-21.72,21.24-32.65,21.24-6.93,0-12.09-2.93-12.09-8.96,0-60.29,28.6-199.95,38-216.15,1.36-2.35,3.42-3.35,5.82-3.35,9.4,0,23.94,15.51,21.45,26.38-12.33,53.69-37,154.53-37,154.53,0,0,102.29-221.15,154.79-224.2,1.66-.1,3.27-.14,4.82-.14,32.55,0,42.83,20.23,30.62,23.98-38.27,11.73-75.4,61.77-99.63,92.06-24.23,30.29-63.69,111.86-74.13,134.63Zm455.31-114.45c-1.44,2.85-3.04,5.74-4.72,8.69-17.11,30.09-47.2,64.11-72.43,64.11-6.56,0-12.8-2.3-18.39-7.57-17.21-16.22-12-45.45-13.04-45.45-.04,0-.1.05-.17.16-20.52,32.15-45.06,49.42-62.25,49.42-7.05,0-12.87-2.91-16.66-8.88-2.35-3.7-4.04-7.75-5.14-12.05-16.43,17.35-35.79,33.14-51.85,33.14-2.31,0-4.55-.33-6.7-1.02-8.29-2.67-11.71-9.4-11.8-18.56-5,7.07-10.74,13.36-17.21,17.81-11.37,8.55-21.6,11.51-30.28,11.51-15.98,0-26.71-10.06-29.62-13.79-3.7-4.75,10.15-16.74,16.41-16.74.77,0,1.42.18,1.91.58.09.07.18.15.28.23.81.68,1.74,1.54,2.8,2.43,2.48,2.07,5.68,4.23,9.79,4.23,2.97,0,6.43-1.13,10.43-4.23.57-.44,1.14-.9,1.73-1.42,2.26-1.99,4.02-4.24,5.39-6.64,10.24-17.85-1.52-44.58-1.52-44.58,0,0-7.46,9.51-18.93,22.5-2.98,3.37-6.23,6.98-9.69,10.72-25.2,27.22-61.55,61.28-85.65,61.28-2.56,0-4.98-.38-7.24-1.2-34.16-12.38,57.6-136.48,67.8-145.03,1.17-.98,2.49-1.41,3.88-1.41,7.95,0,17.99,14.16,13.17,20.53-3.78,5-68.97,96.98-63.05,97.56.06,0,.13,0,.19,0,8.93,0,57.42-53.98,90.97-92.53,2.03-2.33,3.99-4.59,5.9-6.79,14.88-17.19,25.72-30.03,26.76-31.19,1.02-1.14,2.26-1.64,3.63-1.64,7.53,0,18.59,15.17,13.43,20.76-2.85,3.08-5.29,5.97-7.37,8.68-1.31,1.71-2.48,3.35-3.51,4.93-17.04,26,1.61,35.27,1.71,57.18,6.29-11.47,13.58-24.51,17.16-29.96,0-.01.01-.02.02-.03.35-.66.71-1.32,1.07-1.98,3.25-6.03,6.7-11.99,10.17-17.74,14.71-24.29,30.02-44.54,33.99-47.87,1.18-.99,2.51-1.43,3.9-1.43,7.87,0,17.64,13.97,13.15,20.55-3.66,5.36-58.43,95.09-52.51,95.66.2.02.39.03.6.03,11.92,0,36.48-31.88,48.72-56.03h.01c17.38-37.19,55.46-72.32,90.72-72.31,5.11,0,10.16.74,15.07,2.31l6.45-7.19c1.35-1.31,2.94-1.87,4.62-1.87,8.08,0,18.21,13.16,13.7,20.14l-2.87,4.44c-24.88,35.68-33.27,94.64-20.71,103.97,1.73,1.28,3.57,1.88,5.51,1.88,14.32,0,33.81-32.32,49.25-57.99,1.46-2.43,2.67-4.97,4.18-7.18,1.18-1.73,2.65-2.45,4.24-2.45,7.17,0,16.89,14.77,14.58,19.32Z"/></g></svg>